# xmcd CD database file
#
# Track frame offsets:
#	150
#	14663
#	29108
#	42918
#	56570
#	67783
#	82978
#	94963
#	112978
#	125720
#	142383
#	155195
#	172023
#	185733
#	197108
#	213553
#
# Disc length: 3020 seconds
#
# Revision: 2
# Processed by: cddbd v1.5.1PL0 Copyright (c) Steve Scherf et al.
# Submitted via: CDex 1.51
#
DISCID=fa0bca10
DTITLE=Various Artist - Trucker Hit-Exprsess CD 2
DYEAR=1900
DGENRE=Country
TTITLE0=Dave Dudley  - Im Stau
TTITLE1=Tom Astor  - Das letzt Hemd hat keine Taschen
TTITLE2=Ralf Paulsen  - Ich bin ein Trucker auf dem Weg zu deinem Herzen
TTITLE3=Tom Astor  - Pleite ( Ich bin pleite )
TTITLE4=Jim Erhardt  - Die besten Straßen führen immer g´radeaus
TTITLE5=Ulla Norden  - Du nimmst mich so wie ich bin
TTITLE6=Roland Worm  - Unverhofft kommt oft
TTITLE7=Rafael  - Ein Könidreich für ein WC
TTITLE8=Tom Astor  - Ich freu mich auf zu Hause
TTITLE9=Rugy and Howard  - Bitte komm gut heim
TTITLE10=Tom Astor  - Seit wir zusasmmen fahren
TTITLE11=Dave Carpenter  - Country Songs erzählen...
TTITLE12=Tom Astor  - Tausend Traüme auf Asphalt
TTITLE13=Flohouse String Band  - Die rote alte Lady
TTITLE14=Tom Astor - / Trucker-Team
TTITLE15=Tom Astor  - Komm nach Haus
EXTD=
EXTT0=
EXTT1=
EXTT2=
EXTT3=
EXTT4=
EXTT5=
EXTT6=
EXTT7=
EXTT8=
EXTT9=
EXTT10=
EXTT11=
EXTT12=
EXTT13=
EXTT14=
EXTT15=
PLAYORDER=
